<svg width="20" height="20" viewBox="0 0 20 20" fill="none" xmlns="http://www.w3.org/2000/svg">
<path d="M9.81243 0.506831C9.87687 0.332718 10.1231 0.332718 10.1876 0.506832L12.6692 7.21261C12.6895 7.26735 12.7326 7.31051 12.7874 7.33077L19.4932 9.81243C19.6673 9.87687 19.6673 10.1231 19.4932 10.1876L12.7874 12.6692C12.7326 12.6895 12.6895 12.7326 12.6692 12.7874L10.1876 19.4932C10.1231 19.6673 9.87687 19.6673 9.81243 19.4932L7.33077 12.7874C7.31051 12.7326 7.26735 12.6895 7.21261 12.6692L0.506831 10.1876C0.332718 10.1231 0.332718 9.87687 0.506832 9.81243L7.21261 7.33077C7.26735 7.31051 7.31051 7.26735 7.33077 7.21261L9.81243 0.506831Z" fill="white"/>
</svg>
